<svg width="1512" height="2627" viewBox="0 0 1512 2627" fill="none" xmlns="http://www.w3.org/2000/svg">
<path d="M216.568 -150.038C89.066 -194.539 -10.0037 -24.5413 -43.6008 66.0199C-49.0734 89.1929 -51.5369 136.756 -17.6105 141.622C24.7975 147.705 16.9586 107.543 48.9371 44.5666C80.9156 -18.4102 70.3752 24.4792 144.352 40.4155C218.328 56.3518 194.668 102.038 222.193 163.362C249.718 224.687 308.524 245.551 390.235 278.583C471.947 311.615 480.837 271.132 585.794 207.488C690.752 143.845 747.565 214.049 756.356 274.32C765.147 334.591 595.747 395.911 489.323 489.209C382.9 582.508 721.502 702.65 646.938 597.281C572.374 491.911 1075.46 141.712 947.487 46.3018C819.516 -49.1086 453.589 271.316 330.842 168.286C208.096 65.2554 375.946 -94.4124 216.568 -150.038Z" fill="#2446FA"/>
<path d="M1270 957.723C1340 842.235 1524.62 910.265 1608.19 958.716C1627.16 973.103 1659.34 1008.21 1636.27 1033.56C1607.44 1065.25 1587.92 1029.29 1523.17 1001.08C1458.41 972.874 1493.85 999.239 1446.94 1058.62C1400.04 1118.01 1447.37 1138.18 1465.18 1202.99C1482.99 1267.81 1450.93 1321.33 1408.94 1398.83C1366.96 1476.32 1334.33 1450.76 1212.87 1468.5C1091.41 1486.23 1092.29 1576.54 1123.88 1628.62C1155.47 1680.69 1325.15 1620.14 1466.61 1624.34C1608.08 1628.54 1423.44 1936.75 1413.86 1808.02C1404.29 1679.29 793.375 1729.5 831.325 1574.45C869.274 1419.4 1355.46 1433.55 1384.53 1275.96C1413.6 1118.36 1182.51 1102.08 1270 957.723Z" fill="#2446FA"/>
<path d="M84.5763 1624.73C58.258 1757.18 -138.499 1756.34 -233.587 1739.36C-256.334 1732.33 -298.574 1710.32 -285.56 1678.62C-269.293 1638.98 -238.657 1666.11 -168.162 1670.49C-97.6676 1674.88 -139.977 1662.21 -116.19 1590.37C-92.4028 1518.53 -143.777 1515.75 -182.667 1460.92C-221.557 1406.1 -209.711 1344.83 -196.735 1257.66C-183.758 1170.48 -144.359 1183.36 -36.2746 1125.18C71.8103 1067.01 40.1227 982.435 -7.36184 944.29C-54.8464 906.144 -193.614 1021.03 -327.999 1065.43C-462.385 1109.83 -394.185 757.076 -341.194 874.781C-288.204 992.486 268.774 736.539 286.093 895.22C303.412 1053.9 -158.339 1206.75 -131.802 1364.79C-105.266 1522.83 117.474 1459.16 84.5763 1624.73Z" fill="#2446FA"/>
<path d="M430.607 2082.99C102.091 1954.73 -29.5948 2021.19 -54.373 2070.46C-73.6885 2089.59 -106.293 2128.48 -82.189 2130.99C-52.0584 2134.14 36.7088 2147.1 113.534 2147.61C190.36 2148.13 289.588 2161.61 353.719 2166.47C417.849 2171.32 539.991 2318.95 689.721 2412.37C839.451 2505.79 1101.04 2348.78 1088.1 2385.11C1075.15 2421.44 995.18 2510.45 844.431 2518.25C693.682 2526.04 728.397 2549.48 745.593 2595.92C762.788 2642.35 695.062 2660.46 662.005 2693.97C628.947 2727.48 499.288 2734.8 597.395 2727.43C695.502 2720.07 1057.8 2932.03 867.47 2788.38C677.137 2644.73 1187.99 2511.28 1230.46 2380.42C1272.93 2249.56 1221.99 2169.42 945.543 2298.2C669.096 2426.98 841.252 2243.32 430.607 2082.99Z" fill="#2446FA"/>
<path d="M1469.38 -289.09C1539.37 -404.578 1724 -336.548 1807.56 -288.097C1826.53 -273.711 1858.71 -238.599 1835.65 -213.249C1806.81 -181.56 1787.29 -217.522 1722.54 -245.731C1657.79 -273.939 1693.22 -247.574 1646.31 -188.19C1599.41 -128.805 1646.74 -108.636 1664.55 -43.8204C1682.37 20.9952 1650.3 74.5215 1608.31 152.014C1566.33 229.506 1533.7 203.946 1412.24 221.683C1290.78 239.419 1291.66 329.728 1323.25 381.804C1354.84 433.881 1524.52 373.327 1665.99 377.526C1807.45 381.726 1622.81 689.936 1613.24 561.209C1603.66 432.481 992.748 482.685 1030.7 327.638C1068.65 172.59 1554.83 186.742 1583.9 29.1444C1612.97 -128.453 1381.88 -144.73 1469.38 -289.09Z" fill="#2446FA"/>
</svg>
