<svg width="70" height="62" viewBox="0 0 70 62" fill="none" xmlns="http://www.w3.org/2000/svg">
<path d="M6.122 50.1763C-2.30394 37.8507 0.923097 21.0728 13.3298 12.7019L25.2445 4.66294C37.6512 -3.70797 54.5394 -0.502012 62.9653 11.8237C71.3913 24.1493 68.1642 40.9272 55.7575 49.2981L43.8428 57.3371C31.4361 65.708 14.5479 62.502 6.122 50.1763Z" fill="#033FD8"/>
<path d="M0 12.4171V7.28694H24.3298V12.4171H15.2604V36.7174H9.06943V12.4171H0Z" fill="white"/>
<path d="M45.6702 12.4171V7.28694H70V12.4171H60.9306V36.7174H54.7396V12.4171H45.6702Z" fill="white"/>
<path d="M18.7825 24.3096V17.4693H51.2222V24.3096H39.1297V56.7099H30.8751V24.3096H18.7825Z" fill="white"/>
</svg>
