<svg width="1440" height="3470" viewBox="0 0 1440 3470" fill="none" xmlns="http://www.w3.org/2000/svg">
<rect x="33" width="1379" height="3284" fill="#051256"/>
<path d="M331 624.5C294.6 490.5 92.8334 505.333 -3.49997 529.5C-26.3333 538.333 -68.1 563.9 -52.5 595.5C-33 635 -3.49997 605 68.5 595.5C140.5 586 98 602 127.5 674C157 746 104.5 752.5 68.5 811.5C32.5 870.5 49 932.5 68.5 1021C88 1109.5 127.5 1093.5 242.5 1145.5C357.5 1197.5 331 1286.5 285 1329C239 1371.5 88.5 1263.5 -52.5 1227.5C-193.5 1191.5 -98.5 1548.5 -52.5 1424C-6.49997 1299.5 583 1522.5 589.5 1358.5C596 1194.5 111.5 1070.5 127.5 906.5C143.5 742.5 376.5 792 331 624.5Z" fill="#2446FA"/>
<path d="M1283.51 1562.03C1355.48 1443.28 1545.32 1513.23 1631.24 1563.05C1650.74 1577.84 1683.83 1613.94 1660.11 1640.01C1630.47 1672.59 1610.4 1635.61 1543.82 1606.61C1477.24 1577.61 1513.67 1604.71 1465.44 1665.77C1417.21 1726.83 1465.88 1747.57 1484.19 1814.22C1502.51 1880.86 1469.54 1935.9 1426.37 2015.58C1383.2 2095.26 1349.65 2068.98 1224.76 2087.21C1099.88 2105.45 1100.78 2198.31 1133.26 2251.85C1165.74 2305.4 1340.21 2243.14 1485.67 2247.46C1631.13 2251.77 1441.28 2568.68 1431.43 2436.32C1421.58 2303.96 793.43 2355.58 832.45 2196.16C871.47 2036.74 1371.37 2051.29 1401.26 1889.24C1431.15 1727.2 1193.54 1710.46 1283.51 1562.03Z" fill="#2446FA"/>
<path d="M420.423 2719.05C82.6359 2587.17 -52.766 2655.51 -78.2435 2706.16C-98.1041 2725.84 -131.629 2765.82 -106.844 2768.41C-75.8636 2771.64 15.4088 2784.97 94.4023 2785.5C173.396 2786.03 275.425 2799.89 341.365 2804.88C407.306 2809.87 532.894 2961.67 686.85 3057.73C840.806 3153.78 1109.78 2992.34 1096.47 3029.7C1083.16 3067.05 1000.93 3158.58 845.926 3166.59C690.923 3174.6 726.618 3198.71 744.299 3246.45C761.979 3294.19 692.342 3312.82 658.351 3347.27C624.361 3381.73 491.043 3389.25 591.919 3381.68C692.794 3374.11 1065.32 3592.05 869.615 3444.35C673.911 3296.65 1199.18 3159.43 1242.85 3024.87C1286.52 2890.32 1234.14 2807.92 949.891 2940.33C665.643 3072.74 842.657 2883.91 420.423 2719.05Z" fill="#2446FA"/>
</svg>
