<svg width="45" height="45" viewBox="0 0 45 45" fill="none" xmlns="http://www.w3.org/2000/svg">
<circle cx="22.0982" cy="22.0982" r="20.5982" stroke="white" stroke-width="3"/>
<g clip-path="url(#clip0_145_10)">
<path d="M26.7455 24.0001C27.1914 24.0001 27.5775 23.6904 27.6741 23.255L28.4539 19.7419C28.5181 19.4527 28.7746 19.2469 29.0709 19.2469C29.4199 19.2469 29.7029 18.9639 29.7029 18.6149V18.2959C29.7029 17.7708 29.2771 17.345 28.7519 17.345H27.0305C26.6716 17.345 26.3403 17.1527 26.1622 16.8412L23.393 11.9954C23.133 11.5405 22.5535 11.3823 22.0984 11.6421C21.6432 11.902 21.4849 12.4817 21.7448 12.9369L23.4076 15.8492C23.7883 16.5158 23.3069 17.345 22.5392 17.345H17.8555C17.0875 17.345 16.6062 16.5153 16.9874 15.8486L18.6498 12.9414C18.9106 12.4854 18.7522 11.9042 18.2961 11.6436C17.8401 11.383 17.2592 11.5414 16.9985 11.9973L14.2298 16.8412C14.0517 17.1528 13.7204 17.345 13.3616 17.345H11.6436C11.1184 17.345 10.6927 17.7708 10.6927 18.2959V18.6149C10.6927 18.9639 10.9757 19.2469 11.3247 19.2469C11.621 19.2469 11.8775 19.4527 11.9417 19.7419L13.5655 27.0575C13.6631 27.4924 14.0473 27.801 14.4929 27.801H22.0961C22.6213 27.801 23.047 27.3753 23.047 26.8501C23.047 26.3249 22.6213 25.8992 22.0961 25.8992H16.0585C15.5898 25.8992 15.184 25.5736 15.0823 25.1161L14.0483 20.4638C13.9096 19.8393 14.3848 19.2469 15.0245 19.2469H25.3705C26.0104 19.2469 26.4857 19.8396 26.3466 20.4643L25.817 22.8421C25.6847 23.4363 26.1368 24.0001 26.7455 24.0001ZM33.5038 29.7015C33.5038 29.1763 33.078 28.7505 32.5528 28.7505H31.6524C31.1001 28.7505 30.6524 28.3028 30.6524 27.7505V26.8501C30.6524 26.3249 30.2266 25.8992 29.7014 25.8992C29.1763 25.8992 28.7505 26.3249 28.7505 26.8501V27.7505C28.7505 28.3028 28.3028 28.7505 27.7505 28.7505H26.8501C26.3249 28.7505 25.8991 29.1763 25.8991 29.7015C25.8991 30.2267 26.3249 30.6524 26.8501 30.6524H27.7505C28.3028 30.6524 28.7505 31.1001 28.7505 31.6524V32.5529C28.7505 33.0781 29.1763 33.5038 29.7014 33.5038C30.2266 33.5038 30.6524 33.0781 30.6524 32.5529V31.6524C30.6524 31.1001 31.1001 30.6524 31.6524 30.6524H32.5528C33.078 30.6524 33.5038 30.2267 33.5038 29.7015Z" fill="white"/>
</g>
<defs>
<clipPath id="clip0_145_10">
<rect width="22.8111" height="22.8111" fill="white" transform="translate(10.6927 10.6927)"/>
</clipPath>
</defs>
</svg>
