<svg width="24" height="24" viewBox="0 0 24 24" fill="none" xmlns="http://www.w3.org/2000/svg">
<g clip-path="url(#clip0_145_12)">
<path d="M16.7455 14C17.1914 14 17.5775 13.6902 17.6741 13.2549L18.4539 9.74182C18.5181 9.45258 18.7746 9.24675 19.0709 9.24675C19.4199 9.24675 19.7029 8.96379 19.7029 8.61474V8.29582C19.7029 7.77063 19.2771 7.34488 18.7519 7.34488H17.0305C16.6716 7.34488 16.3403 7.15261 16.1622 6.84105L13.393 1.9953C13.133 1.54035 12.5535 1.38219 12.0984 1.642C11.6432 1.9019 11.4849 2.48161 11.7448 2.93681L13.4076 5.84903C13.7883 6.51569 13.3069 7.34488 12.5392 7.34488H7.8555C7.08754 7.34488 6.60619 6.51513 6.98741 5.84847L8.64984 2.9413C8.91063 2.48523 8.75224 1.90409 8.29608 1.64343C7.84007 1.38285 7.25916 1.54125 6.99853 1.99723L4.22978 6.84113C4.05172 7.15264 3.72041 7.34488 3.3616 7.34488H1.64363C1.11844 7.34488 0.692688 7.77063 0.692688 8.29582V8.61474C0.692688 8.96379 0.97565 9.24675 1.3247 9.24675C1.62099 9.24675 1.8775 9.45258 1.9417 9.74182L3.56546 17.0574C3.66312 17.4922 4.04734 17.8009 4.49287 17.8009H12.0961C12.6213 17.8009 13.047 17.3752 13.047 16.85C13.047 16.3248 12.6213 15.899 12.0961 15.899H6.05848C5.58979 15.899 5.18398 15.5735 5.0823 15.116L4.04835 10.4637C3.90955 9.83919 4.38477 9.24675 5.02453 9.24675H15.3705C16.0104 9.24675 16.4857 9.8395 16.3466 10.4641L15.817 12.842C15.6847 13.4362 16.1368 14 16.7455 14ZM23.5038 19.7014C23.5038 19.1762 23.078 18.7504 22.5528 18.7504H21.6524C21.1001 18.7504 20.6524 18.3027 20.6524 17.7504V16.85C20.6524 16.3248 20.2266 15.899 19.7014 15.899C19.1763 15.899 18.7505 16.3248 18.7505 16.85V17.7504C18.7505 18.3027 18.3028 18.7504 17.7505 18.7504H16.8501C16.3249 18.7504 15.8991 19.1762 15.8991 19.7014C15.8991 20.2265 16.3249 20.6523 16.8501 20.6523H17.7505C18.3028 20.6523 18.7505 21.1 18.7505 21.6523V22.5527C18.7505 23.0779 19.1763 23.5037 19.7014 23.5037C20.2266 23.5037 20.6524 23.0779 20.6524 22.5527V21.6523C20.6524 21.1 21.1001 20.6523 21.6524 20.6523H22.5528C23.078 20.6523 23.5038 20.2265 23.5038 19.7014Z" fill="white"/>
</g>
<defs>
<clipPath id="clip0_145_12">
<rect width="22.8111" height="22.8111" fill="white" transform="translate(0.692688 0.692627)"/>
</clipPath>
</defs>
</svg>
