<svg width="34" height="38" viewBox="0 0 34 38" fill="none" xmlns="http://www.w3.org/2000/svg">
<path d="M14.1748 0C11.5761 0 9.44989 2.12623 9.44989 4.72495H4.72495C2.12623 4.72495 0 6.85117 0 9.44989H33.0746C33.0746 6.85117 30.9484 4.72495 28.3497 4.72495H23.6247C23.6247 2.12623 21.4985 0 18.8998 0H14.1748ZM4.72495 14.1748V36.9018C4.72495 37.4216 5.10294 37.7996 5.62269 37.7996H27.4992C28.0189 37.7996 28.3969 37.4216 28.3969 36.9018V14.1748H23.672V30.7122C23.672 32.0351 22.6325 33.0746 21.3095 33.0746C19.9865 33.0746 18.947 32.0351 18.947 30.7122V14.1748H14.2221V30.7122C14.2221 32.0351 13.1826 33.0746 11.8596 33.0746C10.5366 33.0746 9.49714 32.0351 9.49714 30.7122V14.1748H4.7722H4.72495Z" fill="black"/>
</svg>
